<svg xmlns="http://www.w3.org/2000/svg" xmlns:xlink="http://www.w3.org/1999/xlink" width="16" height="16" viewBox="0 0 16 16">
  <defs>
    <clipPath id="clip-Web_1920_1">
      <rect width="16" height="16"/>
    </clipPath>
  </defs>
  <g id="Web_1920_1" data-name="Web 1920 – 1" clip-path="url(#clip-Web_1920_1)">
    <path id="Path_1" data-name="Path 1" d="M6.338,23.465l-.114.214v.289l-.145-.181.08.307-.08.26v.386L5.955,24.7l.031-.388-.17.143-.058-.307.058-.218-.182.129-.141-.185-.089.916-.116-1.005-.067.145v.619l.067.241-.067.139v.334l-.086-.109v.878l.086.679-.086.737.135,2.161-.06,1.7-.075.157v.4L4.952,31.8l-.367-.325-.546-.256H3.932l-.25-.144-.107.038-1.112-.534H2.176l-.827-.368-.141.069-.949-.442.1.173.19.078-.19.031L.6,30.18l.15.139.24.17-.121.025L.7,30.375v.139l-.2-.087-.116-.108.031.17H.259l.555.387-.7-.3.095.124.337.177.154.05.113.1.246.11-.126.036.522.3.494.2.426.32,1.417.711,1.054.641.105.124.223.117.4.376.845.347.125-.156h.134l.492-.379L7.1,33.585l.106-.117.127-.124-.088-.118.059-.3-.133-.393.133-.475.03-1.216.1-.5L7.3,30.4l.127-.679-.039-.845L7.3,28.751v-.4l-.133-.112v-.36l-.09-.675-.044-.619-.238-.323-.132-1.222-.2-.114-.121-1.214Z" transform="translate(0.228 -20.886)" fill="#d6d6d6"/>
    <path id="Path_2" data-name="Path 2" d="M131.5,23.465v.3l-.127,1.147-.225.124-.117,1.243-.237.362-.137,1.211.018.425-.131.211-.024.347-.053.153-.042.686.042.417-.088-.1.065.794.076.655.037.636.074.466-.049.327v.364l-.025.15.912.923.668-.061.715.043.235-.043,1.01-.028,1.378.071.515-.043.973.061-.125-.061h.284l.087-.046.213.046h.372l.108-.046-.754-.054.645-.055-.163-.067.113-.128-.15.047-.217-.047.1-.1-.354.029.126-.106h.382l.216.037-.143-.093h.2l.125-.072-.93-.08-.134-.106-.759-.062-.214-.157-.834-.074h-.235l-.146-.06h-.166L134.445,33l-.518-.026-.421.055.138-.114-.79.134h-.17l-.049-.075-.026-.415.075-1.109-.109-.21-.046-1.66.161-2.161-.118.108.06-.425-.06-.405.118-.783v-.753l-.118.127.023-.414-.066-.176.1-.268v-.5l-.1-.161-.075.82-.072.144-.056-.858-.148.2L132,23.929l.048.171-.048.386-.182-.145.027.422-.123-.091v-.331l-.086-.242.119-.332-.176.161.035-.283Z" transform="translate(-122.373 -20.886)" fill="#d6d6d6"/>
  </g>
</svg>
