<svg xmlns="http://www.w3.org/2000/svg" xmlns:xlink="http://www.w3.org/1999/xlink" width="32" height="32" viewBox="0 0 32 32">
  <defs>
    <clipPath id="clip-Web_1920_1">
      <rect width="32" height="32"/>
    </clipPath>
  </defs>
  <g id="Web_1920_1" data-name="Web 1920 – 1" clip-path="url(#clip-Web_1920_1)">
    <path id="Path_1" data-name="Path 1" d="M12.827,23.465l-.234.437v.59l-.3-.371.163.627-.163.532v.788l-.253-.079.064-.792-.347.293-.119-.628.119-.446-.373.263L11.1,24.3l-.182,1.872-.236-2.053-.137.3v1.265l.137.492-.137.284v.682l-.176-.222v1.794l.176,1.386L10.368,31.6l.276,4.415L10.521,39.5l-.153.321v.815L10,40.486l-.75-.664L8.13,39.3H7.912L7.4,39.005l-.218.077L4.912,37.991H4.324l-1.689-.753-.288.142-1.939-.9.2.353L1,36.99l-.388.064.505.131.306.284.491.348-.248.05-.352-.284v.284L.9,37.689l-.236-.221.063.348H.408l1.134.79L.116,37.991l.193.252L1,38.606l.315.1.23.209.5.224-.257.073,1.066.607,1.009.41.87.653,2.894,1.452,2.154,1.31L10,43.9l.455.238.81.768,1.727.709.256-.319h.274l1.006-.774-.145-.383.216-.238.26-.253-.18-.241.12-.619-.271-.8.271-.971.06-2.485.2-1.02-.259.13.259-1.387-.079-1.726-.18-.262v-.809l-.272-.228v-.735l-.184-1.378-.09-1.265-.486-.66-.271-2.5-.417-.233-.246-2.48Z" transform="translate(0.072 -18.54)" fill="#d6d6d6"/>
    <path id="Path_2" data-name="Path 2" d="M132.67,23.465v.619l-.258,2.344-.461.254-.239,2.54-.484.74-.28,2.475.038.868-.267.431-.048.708-.108.313-.086,1.4.086.851-.179-.207.132,1.621.156,1.338.075,1.3.151.952-.1.668v.744l-.051.307,1.864,1.885,1.365-.124,1.46.087.48-.087,2.064-.057,2.816.145,1.052-.087,1.988.124-.255-.124h.58l.178-.094.435.094h.759l.221-.094-1.539-.109,1.319-.112-.333-.138.231-.261-.307.1-.443-.1.2-.2-.724.059.258-.217h.78l.441.076-.293-.191h.406l.255-.148-1.9-.164-.273-.216-1.55-.127-.438-.32-1.7-.151h-.479l-.3-.123h-.339l-.341-.1-1.058-.054-.861.112.283-.232-1.614.275h-.347l-.1-.154-.053-.849.153-2.266-.222-.428-.093-3.391.329-4.415-.24.22.124-.869-.124-.828.24-1.6V26.936l-.24.259.046-.846-.134-.359.212-.548v-1.03l-.212-.329-.154,1.675-.146.294-.114-1.753-.3.412-.361-.3.1.349-.1.79-.371-.3.055.862-.252-.186v-.676l-.176-.494.244-.678-.359.329.071-.579Z" transform="translate(-114.193 -18.54)" fill="#d6d6d6"/>
  </g>
</svg>
