<?xml version="1.0" standalone="no"?>
<!DOCTYPE svg PUBLIC "-//W3C//DTD SVG 20010904//EN"
 "http://www.w3.org/TR/2001/REC-SVG-20010904/DTD/svg10.dtd">
<svg version="1.0" xmlns="http://www.w3.org/2000/svg"
 width="1920.000000pt" height="1920.000000pt" viewBox="0 0 1920.000000 1920.000000"
 preserveAspectRatio="xMidYMid meet">
<metadata>
Created by potrace 1.14, written by Peter Selinger 2001-2017
</metadata>
<g transform="translate(0.000000,1920.000000) scale(0.100000,-0.100000)"
fill="#000000" stroke="none">
<path d="M8574 14822 l-51 -97 1 -133 c0 -72 -1 -132 -4 -132 -3 1 -27 30 -55
66 -27 36 -55 70 -62 75 -15 13 -15 11 26 -146 17 -66 29 -127 28 -135 -2 -8
-19 -62 -37 -120 -32 -102 -33 -110 -35 -287 0 -100 -4 -185 -7 -189 -4 -3
-30 2 -59 11 l-52 17 7 87 c14 198 17 227 22 249 7 34 -9 27 -86 -39 -39 -34
-72 -60 -74 -58 -3 4 -38 183 -51 261 -4 25 1 62 16 110 11 40 23 83 25 97 6
27 10 29 -101 -48 -32 -23 -61 -41 -65 -41 -3 0 -33 36 -66 80 -32 44 -62 80
-65 80 -4 0 -10 -44 -15 -97 -4 -54 -8 -100 -9 -103 -1 -3 -5 -48 -9 -100 -5
-52 -10 -102 -11 -111 -2 -8 -6 -49 -10 -90 -3 -41 -8 -90 -10 -109 -2 -19 -7
-71 -11 -115 -8 -97 -9 -103 -15 -109 -3 -3 -5 5 -5 17 -1 24 -12 127 -18 167
-3 14 -7 54 -11 90 -4 36 -8 79 -10 95 -2 17 -6 55 -10 85 -3 30 -8 66 -10 80
-2 14 -6 52 -10 85 -11 112 -25 240 -31 274 l-6 34 -31 -69 -32 -70 1 -299 1
-300 32 -111 31 -110 -33 -70 -34 -69 2 -147 c1 -82 -1 -148 -5 -148 -9 0 -60
61 -60 72 0 4 -4 8 -8 8 -5 0 -8 -197 -7 -437 2 -475 -4 -399 72 -973 10 -74
9 -94 -32 -410 -3 -19 -7 -55 -9 -80 -10 -98 -18 -163 -25 -209 -4 -26 -7 -71
-5 -99 2 -66 14 -252 19 -322 4 -54 13 -193 20 -335 2 -38 7 -106 10 -150 3
-44 8 -114 10 -155 2 -41 7 -118 10 -170 9 -141 13 -205 19 -305 7 -108 13
-197 23 -330 9 -121 9 -497 0 -730 -4 -93 -10 -244 -13 -335 -3 -91 -7 -210
-9 -265 -2 -55 -7 -183 -10 -285 -4 -102 -8 -208 -9 -236 -2 -34 -14 -76 -37
-125 l-35 -74 0 -183 c1 -101 -2 -186 -6 -188 -11 -7 -169 61 -192 82 -12 11
-55 49 -96 84 -41 36 -82 72 -90 80 -68 69 -157 133 -235 170 -49 23 -119 56
-155 72 -36 17 -112 53 -168 79 -81 38 -115 49 -154 49 -42 0 -65 8 -142 52
-166 94 -151 89 -203 67 l-45 -19 -106 51 c-59 29 -165 80 -237 114 -150 72
-322 155 -553 266 l-163 79 -138 0 -138 0 -144 64 c-79 35 -169 75 -199 89
-30 13 -144 64 -253 112 l-199 88 -67 -32 -67 -33 -209 97 c-116 54 -266 123
-335 155 -211 98 -283 131 -323 152 l-38 19 42 -78 c23 -43 49 -83 56 -89 8
-5 49 -23 90 -39 83 -31 81 -40 -8 -51 -30 -3 -57 -9 -62 -13 -4 -4 35 -17 85
-30 51 -12 100 -24 108 -27 8 -2 42 -29 75 -60 58 -54 154 -128 242 -188 70
-47 71 -53 12 -65 -49 -11 -53 -10 -88 16 -20 15 -38 30 -41 33 -3 3 -24 20
-47 38 l-42 33 -3 -65 -3 -64 -90 38 c-96 41 -97 42 -163 104 l-44 41 6 -40
c3 -22 9 -59 12 -82 l6 -42 -66 3 c-36 1 -66 0 -66 -4 0 -3 26 -24 57 -46 32
-22 131 -92 221 -155 90 -63 174 -121 188 -130 43 -28 40 -31 -11 -9 -28 12
-99 44 -160 70 -60 26 -175 75 -255 110 -210 90 -197 88 -145 23 32 -41 63
-67 112 -93 208 -112 265 -140 329 -160 44 -14 86 -36 110 -57 70 -62 98 -79
189 -117 50 -21 94 -42 99 -46 8 -8 -69 -36 -86 -32 -5 1 -8 -2 -8 -6 0 -8 16
-18 115 -72 33 -18 72 -41 87 -51 14 -11 28 -19 31 -19 3 0 59 -31 126 -69
103 -59 239 -120 547 -244 33 -13 69 -31 80 -40 10 -9 100 -77 199 -151 l180
-135 680 -342 c461 -231 741 -379 870 -457 105 -63 260 -158 345 -209 85 -52
216 -132 290 -178 74 -47 144 -89 156 -94 11 -5 42 -36 69 -69 41 -51 65 -68
153 -114 107 -55 134 -77 392 -325 107 -103 48 -74 592 -297 169 -69 309 -126
312 -126 3 0 32 33 65 74 l60 73 64 0 64 0 96 74 c52 41 156 121 231 178 75
57 136 108 136 112 0 4 -14 45 -30 90 -36 98 -42 85 92 219 107 105 104 95 40
174 -26 33 -25 62 9 214 23 105 23 106 -42 299 l-63 186 27 101 c15 56 43 157
63 226 38 136 36 111 49 640 3 129 8 327 10 440 5 181 10 246 30 340 10 47 26
125 31 155 2 17 11 63 20 104 8 40 13 76 10 78 -2 3 -28 -7 -57 -21 -28 -15
-53 -25 -55 -24 -2 2 1 21 6 43 11 48 60 307 67 352 2 18 13 72 23 120 19 87
20 254 5 518 -2 44 -7 141 -10 215 -9 208 -8 202 -53 266 l-41 59 0 189 c0
104 -3 192 -8 196 -4 5 -33 29 -63 54 l-55 45 -1 173 c-1 149 -7 256 -19 319
-2 9 -6 40 -10 70 -3 30 -8 65 -10 79 -3 14 -7 43 -10 65 -2 22 -6 56 -9 75
-3 19 -7 58 -11 85 -3 28 -8 61 -10 75 -5 26 -10 91 -21 245 -10 149 -12 176
-19 285 l-7 105 -81 110 c-161 220 -145 188 -161 330 -4 28 -8 70 -11 95 -4
42 -10 91 -20 180 -3 19 -7 66 -11 105 -3 38 -7 76 -9 85 -2 8 -6 49 -10 90
-4 41 -9 89 -11 105 -2 17 -6 53 -9 80 -3 28 -7 68 -10 90 -2 22 -7 65 -10 95
-3 30 -7 68 -9 84 -2 16 -10 32 -17 37 -8 4 -52 30 -98 56 -57 33 -85 55 -86
69 -2 24 -17 171 -20 204 -1 14 -5 57 -9 95 -4 39 -8 86 -11 105 -6 56 -15
141 -20 200 -3 30 -9 100 -15 155 -6 55 -13 129 -16 165 -3 36 -8 79 -10 95
-3 17 -7 99 -10 184 -2 85 -5 156 -7 157 -1 1 -25 -41 -53 -94z"/>
<path d="M11010 14920 c0 -3 -2 -88 -4 -190 -2 -102 -6 -194 -9 -205 -3 -11
-8 -49 -11 -85 -4 -36 -11 -99 -16 -140 -5 -41 -12 -100 -15 -130 -7 -67 -24
-232 -30 -280 -2 -19 -7 -62 -10 -95 -3 -33 -8 -71 -10 -85 -2 -14 -7 -54 -11
-90 -3 -36 -8 -68 -10 -72 -2 -3 -51 -32 -109 -64 -80 -44 -105 -62 -106 -78
0 -12 -2 -32 -4 -46 -1 -14 -6 -61 -10 -105 -4 -44 -8 -93 -10 -110 -2 -16 -6
-59 -10 -95 -3 -36 -8 -85 -10 -110 -6 -62 -14 -154 -20 -220 -3 -30 -7 -75
-10 -100 -2 -25 -7 -74 -10 -110 -3 -36 -8 -85 -10 -110 -3 -25 -7 -71 -10
-103 -6 -54 -15 -73 -119 -232 -104 -158 -115 -178 -120 -232 -3 -32 -8 -71
-10 -88 -3 -16 -7 -59 -10 -95 -3 -36 -8 -74 -10 -85 -2 -11 -7 -54 -11 -95
-4 -41 -9 -82 -10 -90 -2 -8 -6 -42 -9 -75 -3 -33 -8 -76 -11 -95 -2 -19 -7
-62 -10 -95 -3 -33 -8 -67 -10 -75 -2 -8 -6 -49 -10 -90 -3 -41 -10 -102 -14
-135 -9 -59 -7 -175 4 -382 l5 -103 -62 -103 c-35 -56 -64 -107 -65 -112 0 -6
-4 -57 -8 -115 -3 -58 -8 -127 -10 -155 -2 -27 -15 -83 -29 -124 -17 -49 -27
-104 -31 -170 -7 -100 -8 -119 -21 -341 -12 -191 -8 -349 10 -447 2 -10 7 -51
10 -92 l7 -73 -46 48 c-26 27 -45 44 -42 39 3 -6 8 -46 12 -90 3 -44 8 -100
11 -125 2 -25 6 -83 9 -130 3 -47 7 -98 10 -115 2 -16 7 -70 10 -120 7 -100
11 -147 19 -217 3 -27 8 -69 11 -95 3 -27 7 -64 10 -83 5 -38 12 -98 20 -175
3 -27 10 -84 16 -127 5 -42 12 -114 14 -160 2 -45 6 -121 9 -168 3 -47 8 -125
11 -175 3 -49 8 -124 10 -165 3 -41 7 -86 10 -100 11 -54 14 -77 20 -115 3
-22 7 -51 10 -65 16 -92 33 -214 29 -225 -1 -5 -5 -30 -8 -55 -3 -25 -13 -90
-21 -145 -8 -55 -16 -192 -19 -305 -2 -113 -7 -223 -10 -244 l-7 -39 215 -216
c118 -119 314 -317 435 -440 l220 -223 73 6 c40 4 89 9 108 11 19 2 71 7 115
10 91 8 109 9 220 20 121 13 281 8 645 -20 80 -6 184 -6 215 0 17 3 55 10 85
17 77 15 85 15 375 23 143 4 305 8 360 10 143 5 409 5 485 1 36 -2 124 -7 195
-10 72 -3 157 -8 190 -11 33 -2 121 -7 195 -10 74 -4 162 -8 195 -10 216 -11
353 -18 370 -18 23 0 187 12 231 18 185 22 308 22 624 0 30 -2 98 -7 150 -10
52 -3 127 -8 165 -10 39 -3 111 -7 160 -10 l90 -5 -49 25 c-27 14 -51 26 -52
28 -2 1 56 3 129 3 114 1 138 4 174 23 41 20 44 20 115 5 40 -8 84 -18 98 -21
14 -3 103 -6 199 -6 147 -2 181 1 223 16 55 21 55 31 0 33 -44 2 -223 14 -272
19 -29 3 -123 9 -297 19 -47 3 -33 16 18 17 30 0 61 2 69 3 8 2 49 6 90 10 41
3 104 9 140 12 36 3 81 7 100 9 19 2 50 4 69 4 43 1 36 9 -40 41 -34 14 -62
28 -62 32 -1 3 14 23 33 45 68 75 68 73 -2 51 -77 -25 -81 -25 -188 1 -19 5
-48 12 -64 16 l-29 6 49 51 c27 28 45 48 39 46 -10 -6 -65 -11 -245 -23 l-85
-6 35 29 c19 16 46 39 59 51 23 20 35 21 203 21 158 0 351 -18 380 -36 4 -3 8
-3 8 -1 0 3 -27 22 -60 43 -33 21 -60 41 -60 44 0 3 41 4 90 4 80 -1 95 1 126
22 19 13 39 24 43 24 5 0 13 6 19 13 8 9 7 13 -6 13 -37 1 -228 16 -244 19 -9
2 -54 6 -100 9 -46 4 -99 8 -118 10 -19 3 -71 7 -115 11 -90 7 -167 14 -239
21 -27 2 -57 10 -65 17 -9 6 -36 28 -61 49 -50 41 -47 40 -350 63 -47 4 -101
8 -120 10 -19 2 -73 6 -120 10 -130 9 -195 16 -200 24 -3 3 -25 21 -50 39 -25
18 -66 48 -91 67 -48 35 -42 34 -234 51 -27 2 -74 6 -102 9 -29 3 -77 7 -105
10 -29 3 -84 8 -123 11 -38 3 -83 7 -100 9 -16 3 -115 8 -220 11 -178 6 -195
9 -263 35 -59 24 -87 29 -150 28 -51 -1 -100 6 -146 20 -88 26 -110 29 -286
37 -269 12 -363 10 -480 -11 -24 -4 -39 -6 -160 -20 l-55 -6 35 28 c19 15 48
40 65 55 l30 27 -43 -10 c-23 -5 -59 -12 -80 -14 -20 -3 -48 -8 -62 -11 -33
-6 -44 -8 -260 -44 -102 -17 -212 -36 -245 -41 -59 -10 -222 -16 -228 -8 -42
54 -46 68 -54 195 -10 158 -10 408 1 529 4 50 9 119 11 155 3 36 7 99 10 140
7 103 15 221 20 310 2 41 7 102 9 135 4 52 1 67 -24 115 -57 110 -73 146 -75
170 -2 14 -5 138 -9 275 -3 138 -8 315 -11 395 -13 459 -18 673 -18 825 0 150
3 218 18 395 2 25 7 83 10 130 3 47 8 111 11 143 3 31 7 85 9 120 6 94 15 227
20 277 2 25 7 83 10 130 3 47 8 105 10 130 2 25 7 92 10 150 4 58 8 116 10
130 2 14 7 70 10 125 4 55 8 118 10 140 2 22 7 87 10 145 4 58 10 110 13 115
5 10 -29 -19 -81 -68 -16 -16 -30 -27 -32 -25 -2 2 1 26 5 53 4 28 11 73 14
100 4 28 9 61 11 75 20 132 25 181 21 206 -3 16 -8 47 -11 69 -4 22 -11 69
-16 105 -26 163 -28 191 -18 245 5 25 11 67 15 93 3 26 7 54 9 62 2 14 12 74
20 130 2 14 16 104 31 200 25 162 27 201 29 535 1 198 -1 364 -3 368 -2 5 -28
-17 -58 -50 l-53 -58 4 50 c2 28 7 115 10 195 4 80 9 147 11 149 2 2 -1 13 -7
23 -6 11 -21 49 -34 85 -23 62 -23 68 -9 102 8 20 31 77 50 127 l34 92 0 240
0 241 -50 78 c-33 51 -50 71 -51 58 -1 -11 -2 -31 -3 -45 -2 -14 -6 -61 -10
-105 -4 -44 -9 -96 -11 -115 -2 -19 -6 -69 -9 -110 -4 -41 -8 -91 -11 -110 -2
-19 -6 -64 -9 -100 -4 -36 -9 -91 -12 -124 -5 -61 -72 -212 -74 -171 -1 11 -3
38 -5 60 -1 22 -5 90 -9 150 -4 61 -9 135 -11 165 -8 103 -22 324 -24 383 -1
38 -11 34 -48 -21 -18 -26 -39 -56 -47 -67 -56 -73 -49 -68 -71 -48 -11 10
-43 36 -70 58 -28 22 -56 46 -63 55 -10 13 -11 10 -6 -15 3 -16 13 -52 21 -78
14 -44 13 -128 -1 -202 -2 -11 -7 -49 -11 -85 -4 -36 -10 -82 -14 -104 l-6
-38 -82 66 c-45 36 -84 66 -87 66 -3 0 -4 -17 -1 -37 2 -21 6 -83 10 -138 3
-55 8 -128 10 -162 l5 -62 -60 42 -59 42 0 162 -1 161 -41 114 -40 113 51 143
c29 79 50 146 46 149 -3 3 -35 -22 -72 -56 -37 -33 -70 -61 -74 -61 -4 0 -4
19 0 43 5 23 11 73 15 110 3 37 8 76 10 86 2 10 -21 56 -51 102 -29 46 -54 82
-54 79z"/>
</g>
</svg>
