<svg xmlns="http://www.w3.org/2000/svg" xmlns:xlink="http://www.w3.org/1999/xlink" width="1920" height="1080" viewBox="0 0 1920 1080">
  <defs>
    <clipPath id="clip-Web_1920_1">
      <rect width="1920" height="1080"/>
    </clipPath>
  </defs>
  <g id="Web_1920_1" data-name="Web 1920 – 1" clip-path="url(#clip-Web_1920_1)">
    <path id="Path_1" data-name="Path 1" d="M594.3,23.465,583.369,43.9V71.461L569.563,54.128l7.609,29.332-7.609,24.859V145.17l-11.838-3.691,2.978-37.014-16.24,13.684L538.888,88.8l5.575-20.827L527.045,80.246,513.568,62.621l-8.487,87.489L494.029,54.128,487.615,67.97v59.12l6.414,23.021-6.414,13.269v31.895l-8.248-10.387v83.865l8.248,64.8-8.248,70.383,12.9,206.385-5.74,162.789L479.367,788.1v38.094l-17.436-7.054L426.851,788.1l-52.112-24.41h-10.2l-23.867-13.759-10.181,3.6-106.168-51H196.815l-78.943-35.189-13.459,6.625L13.758,631.8l9.417,16.51L41.3,655.713l-18.126,2.971L46.8,664.828l14.326,13.257,22.938,16.244-11.593,2.35L56.006,683.42v13.259l-19.328-8.262L25.636,678.085l2.93,16.244H13.758l52.995,36.938L.116,702.532l9.037,11.8L41.3,731.268l14.7,4.821,10.747,9.754L90.2,756.317l-12,3.42L128.051,788.1l47.181,19.179,40.677,30.535L351.2,905.7l100.675,61.257L461.931,978.8l21.258,11.144,37.862,35.879,80.717,33.124,11.971-14.905h12.79l47.011-36.191-6.76-17.906,10.1-11.144,12.162-11.847-8.418-11.281,5.6-28.933L673.54,889.213l12.684-45.4,2.82-116.17,9.287-47.667-12.107,6.089,12.107-64.815-3.7-80.692-8.4-12.262v-37.83l-12.735-10.651V445.461l-8.62-64.427-4.2-59.148-22.727-30.859L625.3,174.282l-19.493-10.9L594.3,47.466Z" transform="translate(268.966 -16.68)" fill="#d6d6d6"/>
    <path id="Path_2" data-name="Path 2" d="M237.445,23.465V52.441L225.351,162.087,203.8,173.954,192.615,292.785l-22.649,34.635-13.122,115.8,1.76,40.632L146.115,504l-2.264,33.145-5.073,14.638-4.016,65.532,4.016,39.831-8.4-9.7,6.19,75.863,7.279,62.6,3.509,60.773,7.072,44.554L149.74,922.48V957.3l-2.38,14.342,87.206,88.2,63.849-5.823,68.319,4.077,22.44-4.077,96.58-2.69,131.759,6.767,49.209-4.077,93,5.823-11.943-5.823H774.91l8.322-4.4,20.332,4.4h35.527l10.339-4.4L777.4,1044.5l61.688-5.234-15.6-6.449,10.795-12.2-14.34,4.54-20.736-4.54,9.587-9.418-33.885,2.741,12.069-10.173h36.51l20.653,3.55L830.45,998.4H849.43l11.922-6.918L772.5,983.795l-12.772-10.128-72.5-5.949-20.5-14.983-79.737-7.047H564.569l-13.947-5.751H534.757l-15.968-4.7-49.483-2.5-40.282,5.226,13.23-10.878-75.519,12.852H350.521l-4.651-7.2-2.488-39.7,7.139-106.029-10.4-20.028-4.349-158.669,15.372-206.565-11.244,10.3,5.781-40.667L339.9,332.637l11.244-74.808V185.893L339.9,198l2.151-39.567-6.28-16.789,9.91-25.64V67.829l-9.91-15.388-7.208,78.352-6.851,13.742-5.324-82.022L302.269,81.8,285.358,67.829l4.592,16.337-4.592,36.94-17.377-13.849,2.6,40.348-11.8-8.7V107.258l-8.244-23.092,11.4-31.725L245.123,67.829l3.307-27.1Z" transform="translate(863.328 -16.68)" fill="#d6d6d6"/>
  </g>
</svg>
